<svg width="281" height="34" viewBox="0 0 281 34" fill="none" xmlns="http://www.w3.org/2000/svg">
<path d="M51.7 26.5002L49.1 32.8002H41.5L55.6 0.200195H63.2L77.1 32.8002H69.3L66.7 26.5002H51.7ZM59.2 7.9002L54.1 20.6002H64.3L59.2 7.9002Z" fill="white"/>
<path d="M0 32.8002V0.200195H7.3V32.8002H0Z" fill="white"/>
<path d="M23.7004 32.8002L10.9004 0.200195H18.8004L27.7004 24.8002L36.6004 0.200195H44.2004L31.3004 32.8002H23.7004Z" fill="white"/>
<path d="M103.2 32.8002L87.5 11.9002V32.8002H80.5V0.200195H87.2L103 21.1002V0.200195H110V32.8002H103.2Z" fill="white"/>
<path d="M144.8 5.4L140.5 10.6C138.3 8 135.1 6.4 132.1 6.4C126.5 6.4 122.2 10.7 122.2 16.4C122.2 22.1 126.5 26.5 132.1 26.5C135 26.5 138.2 25 140.5 22.7L144.8 27.4C141.4 30.9 136.4 33.2 131.7 33.2C122 33.2 114.7 26 114.7 16.5C114.7 7.1 122.1 0 132 0C136.7 0 141.6 2.1 144.8 5.4Z" fill="white"/>
<path d="M194.9 23.5002H194.2H187.4V32.8002H180.1V0.200195H194.2C202.7 0.200195 207.5 4.3002 207.5 11.5002C207.5 16.5002 205.4 20.2002 201.4 22.0002L208.3 32.8002H200L194.9 23.5002ZM194.3 17.4002C198.3 17.4002 200.7 15.5002 200.7 11.8002C200.7 8.2002 198.4 6.4002 194.3 6.4002H187.5V17.4002H194.3Z" fill="white"/>
<path d="M246.3 16.5C246.3 25.9 238.8 33.1 228.9 33.1C219 33.1 211.5 25.9 211.5 16.5C211.4 7 218.9 0 228.8 0C238.7 0 246.3 7.1 246.3 16.5ZM218.9 16.5C218.9 22.2 223.5 26.7 228.9 26.7C234.3 26.7 238.7 22.2 238.7 16.5C238.7 10.8 234.3 6.4 228.9 6.4C223.5 6.4 218.9 10.8 218.9 16.5Z" fill="white"/>
<path d="M273.8 32.8002L258.1 11.9002V32.8002H251.1V0.200195H257.8L273.6 21.1002V0.200195H280.6V32.8002H273.8Z" fill="white"/>
<path d="M173.8 0.200195H152.6V6.3002H173.8V0.200195Z" fill="white"/>
<path d="M172.2 13.4004H152.6V19.5004H172.2V13.4004Z" fill="white"/>
<path d="M174.4 26.7002H152.6V32.8002H174.4V26.7002Z" fill="white"/>
</svg>
